<svg width="16" height="14" viewBox="0 0 16 14" fill="none" xmlns="http://www.w3.org/2000/svg">
<path d="M11.3708 0.692383C9.91967 0.692383 8.67975 1.72669 7.99852 2.43977C7.31729 1.72669 6.08014 0.692383 4.62975 0.692383C2.12983 0.692383 0.384521 2.43492 0.384521 4.92931C0.384521 7.67777 2.55214 9.45423 4.64914 11.1725C5.63914 11.9846 6.66375 12.8237 7.44952 13.7542C7.58175 13.9099 7.7756 13.9999 7.97914 13.9999H8.01929C8.22352 13.9999 8.41667 13.9092 8.54821 13.7542C9.33537 12.8237 10.3593 11.9839 11.35 11.1725C13.4463 9.45492 15.6153 7.67846 15.6153 4.92931C15.6153 2.43492 13.87 0.692383 11.3708 0.692383Z" fill="white"/>
</svg>
