<svg width="195" height="366" viewBox="0 0 195 366" fill="none" xmlns="http://www.w3.org/2000/svg">
<g opacity="0.4">
<path d="M90.2695 305.477C86.4935 305.477 82.7826 304.695 79.1367 303.133C75.4909 301.701 72.2357 299.617 69.3711 296.883C66.5065 294.148 64.2279 290.763 62.5352 286.727C60.8424 282.82 60.1263 278.328 60.3867 273.25C60.7773 264.396 62.5352 256.193 65.6602 248.641C68.7852 241.089 72.431 234.578 76.5977 229.109C80.7643 223.641 84.9961 219.409 89.293 216.414C93.5898 213.289 97.1706 211.727 100.035 211.727C101.858 211.727 103.486 212.378 104.918 213.68C106.48 214.852 107.652 216.414 108.434 218.367C109.345 220.19 109.866 222.273 109.996 224.617C110.257 226.831 109.996 228.979 109.215 231.062C107.913 230.151 105.504 230.477 101.988 232.039C98.4727 233.602 94.8268 236.271 91.0508 240.047C87.2747 243.693 83.8893 248.25 80.8945 253.719C77.8997 259.188 76.207 265.307 75.8164 272.078C75.556 276.505 75.7513 280.281 76.4023 283.406C77.1836 286.531 78.2253 289.07 79.5273 291.023C80.9596 292.977 82.5221 294.409 84.2148 295.32C86.0378 296.232 87.9258 296.688 89.8789 296.688C94.5664 296.688 98.8633 294.93 102.77 291.414C106.676 287.898 110.257 282.951 113.512 276.57C116.767 270.32 119.827 262.833 122.691 254.109C125.556 245.255 128.29 235.49 130.895 224.812C131.676 221.557 132.652 217.521 133.824 212.703C135.126 207.885 136.493 202.677 137.926 197.078C139.358 191.349 140.855 185.49 142.418 179.5C144.111 173.38 145.673 167.586 147.105 162.117C148.538 156.518 149.905 151.375 151.207 146.688C152.509 141.87 153.551 137.964 154.332 134.969C150.035 134.969 145.738 135.229 141.441 135.75C137.796 136.141 134.02 136.727 130.113 137.508C126.207 138.159 122.952 139.07 120.348 140.242C120.087 140.112 119.892 139.786 119.762 139.266C119.632 138.615 119.501 137.964 119.371 137.312C119.241 136.531 119.111 135.685 118.98 134.773C118.85 133.732 118.85 132.69 118.98 131.648C119.111 130.737 119.241 129.76 119.371 128.719C119.501 127.547 119.762 126.375 120.152 125.203C123.538 124.161 127.444 123.38 131.871 122.859C136.428 122.208 140.66 121.753 144.566 121.492C149.124 121.102 153.811 120.906 158.629 120.906C162.145 120.906 165.79 121.102 169.566 121.492C172.822 121.753 176.467 122.143 180.504 122.664C184.54 123.185 188.577 123.966 192.613 125.008C193.525 125.919 194.111 126.961 194.371 128.133C194.501 128.654 194.566 129.24 194.566 129.891C194.566 130.932 194.371 131.909 193.98 132.82C193.72 133.602 193.264 134.448 192.613 135.359C192.092 136.141 191.376 136.792 190.465 137.312C189.033 136.922 187.21 136.661 184.996 136.531C182.913 136.271 180.829 136.01 178.746 135.75C176.402 135.49 173.928 135.294 171.324 135.164L150.621 227.352C150.1 229.565 149.189 233.081 147.887 237.898C146.585 242.586 144.762 247.859 142.418 253.719C140.204 259.448 137.47 265.372 134.215 271.492C131.09 277.612 127.379 283.146 123.082 288.094C118.785 293.172 113.902 297.339 108.434 300.594C102.965 303.849 96.9102 305.477 90.2695 305.477Z" fill="#87CEEB"/>
<path d="M14.0039 149.938C13.3529 147.073 13.3529 145.25 14.0039 144.469C14.7852 143.557 16.4779 142.776 19.082 142.125C19.9935 138.349 20.8398 134.768 21.6211 131.383C22.4023 127.997 23.1836 124.677 23.9648 121.422C26.1784 112.047 28.2617 103.714 30.2148 96.4219C32.2982 89 34.1862 82.3594 35.8789 76.5C37.7018 70.6406 39.3945 65.3672 40.957 60.6797C42.5195 55.9922 44.0169 51.6302 45.4492 47.5938C46.8815 46.5521 48.3138 45.7708 49.7461 45.25C51.1784 44.599 52.5456 44.0781 53.8477 43.6875C55.2799 43.1667 56.7773 42.776 58.3398 42.5156C59.6419 42.3854 60.8138 42.3854 61.8555 42.5156C62.7669 42.6458 63.5482 42.9062 64.1992 43.2969C64.8503 43.6875 65.2409 44.2734 65.3711 45.0547C60.4232 58.2057 56.1263 70.3802 52.4805 81.5781C48.9648 92.776 46.0352 102.477 43.6914 110.68C40.957 120.315 38.6784 129.104 36.8555 137.047C43.1055 134.573 49.0951 131.057 54.8242 126.5C60.6836 121.812 66.0221 116.669 70.8398 111.07C75.6576 105.341 79.9544 99.4167 83.7305 93.2969C87.6367 87.0469 90.7617 81.0573 93.1055 75.3281C95.4492 69.599 97.0117 64.3255 97.793 59.5078C98.7044 54.6901 98.5742 50.849 97.4023 47.9844C100.527 46.5521 103.457 45.4453 106.191 44.6641C107.624 44.1432 108.991 43.7526 110.293 43.4922C113.678 42.5807 115.762 43.1667 116.543 45.25C117.454 47.2031 117.78 50.1979 117.52 54.2344C117.129 63.4792 114.785 72.5286 110.488 81.3828C106.322 90.237 100.983 98.5703 94.4727 106.383C87.9622 114.065 80.7357 120.966 72.793 127.086C64.9805 133.206 57.2331 138.023 49.5508 141.539C51.7643 141.279 53.9128 141.083 55.9961 140.953C58.0794 140.823 60.0326 140.758 61.8555 140.758C65.3711 140.758 68.6263 141.148 71.6211 141.93C74.6159 142.581 77.2201 143.753 79.4336 145.445C81.7773 147.138 83.5352 149.352 84.707 152.086C86.0091 154.82 86.5951 158.206 86.4648 162.242C86.2044 168.492 85.3581 174.026 83.9258 178.844C82.4935 183.661 80.931 188.089 79.2383 192.125C77.6758 196.292 76.1784 200.133 74.7461 203.648C73.3138 207.164 72.5326 210.745 72.4023 214.391C72.2721 218.036 72.793 221.031 73.9648 223.375C75.1367 225.849 76.6341 227.802 78.457 229.234C80.4102 230.797 82.4284 231.904 84.5117 232.555C86.5951 233.206 88.5482 233.531 90.3711 233.531C92.5846 233.531 94.9935 233.271 97.5977 232.75C100.202 232.359 102.48 231.839 104.434 231.188C105.215 230.927 105.801 231.122 106.191 231.773C106.712 232.424 106.973 233.01 106.973 233.531C106.973 234.052 106.647 234.964 105.996 236.266C105.345 237.698 104.108 238.805 102.285 239.586C100.462 240.497 98.1185 241.409 95.2539 242.32C92.3893 243.232 88.4831 243.688 83.5352 243.688C80.2799 243.688 76.8945 242.906 73.3789 241.344C69.8633 239.911 66.6732 237.828 63.8086 235.094C60.944 232.49 58.6003 229.43 56.7773 225.914C54.9544 222.398 54.1732 218.622 54.4336 214.586C54.5638 210.289 55.3451 205.992 56.7773 201.695C58.2096 197.398 59.707 193.232 61.2695 189.195C62.9622 185.159 64.4596 181.318 65.7617 177.672C67.194 173.896 67.9753 170.38 68.1055 167.125C68.3659 161.266 66.8685 156.904 63.6133 154.039C60.3581 151.044 54.8242 149.547 47.0117 149.547C44.4076 149.547 41.9336 149.677 39.5898 149.938C37.3763 150.198 35.5534 150.458 34.1211 150.719C30.6055 168.427 28.1966 181.773 26.8945 190.758C25.5924 199.742 24.8763 205.602 24.7461 208.336V211.852C24.7461 212.893 24.8112 213.935 24.9414 214.977C25.0716 216.148 25.2669 217.255 25.5273 218.297C23.1836 219.99 20.8398 221.227 18.4961 222.008C16.2826 222.919 14.2643 223.57 12.4414 223.961C10.2279 224.482 8.20964 224.742 6.38672 224.742C5.47526 224.742 4.62891 224.612 3.84766 224.352C3.19661 224.091 2.54557 223.831 1.89453 223.57C1.11328 223.31 0.592448 222.854 0.332031 222.203C2.41536 213.479 4.43359 205.081 6.38672 197.008C8.33984 188.935 10.0326 181.708 11.4648 175.328C13.1576 168.036 14.7852 161.07 16.3477 154.43C15.8268 153.909 15.3711 153.323 14.9805 152.672C14.5898 152.021 14.2643 151.109 14.0039 149.938Z" fill="#87CEEB"/>
</g>
</svg>
