<svg width="22" height="23" viewBox="0 0 22 23" fill="none" xmlns="http://www.w3.org/2000/svg">
<path d="M21.0615 16.8751L17.664 13.4766L14.2459 2.19943C14.1487 1.87831 13.9739 1.58611 13.7368 1.34871C13.4998 1.11131 13.2079 0.93603 12.8869 0.838405C12.5659 0.74078 12.2258 0.72382 11.8967 0.789028C11.5677 0.854236 11.2597 0.999599 11.0002 1.21224C10.7408 0.999599 10.4328 0.854236 10.1037 0.789028C9.77465 0.72382 9.43456 0.74078 9.11359 0.838405C8.79263 0.93603 8.50069 1.11131 8.26364 1.34871C8.0266 1.58611 7.85176 1.87831 7.75462 2.19943L4.33649 13.4776L0.938992 16.8751C0.6579 17.1563 0.5 17.5377 0.5 17.9354C0.5 18.333 0.6579 18.7144 0.938992 18.9957L4.00368 22.0604C4.14297 22.1997 4.30835 22.3102 4.49036 22.3856C4.67237 22.461 4.86745 22.4998 5.06446 22.4998C5.26147 22.4998 5.45655 22.461 5.63857 22.3856C5.82058 22.3102 5.98595 22.1997 6.12524 22.0604L10.6515 17.5313C10.777 17.4055 10.8935 17.2711 11.0002 17.1291C11.107 17.2711 11.2235 17.4055 11.349 17.5313L15.8752 22.0613C16.0145 22.2006 16.1799 22.3111 16.3619 22.3866C16.5439 22.462 16.739 22.5008 16.936 22.5008C17.133 22.5008 17.3281 22.462 17.5101 22.3866C17.6921 22.3111 17.8575 22.2006 17.9968 22.0613L21.0615 18.9966C21.2008 18.8573 21.3113 18.6919 21.3867 18.5099C21.4621 18.3279 21.501 18.1328 21.501 17.9358C21.501 17.7388 21.4621 17.5437 21.3867 17.3617C21.3113 17.1797 21.2008 17.0143 21.0615 16.8751ZM10.2502 14.8829C10.2517 15.1787 10.1945 15.4719 10.0819 15.7455C9.96921 16.0191 9.80338 16.2676 9.59399 16.4766L7.31399 18.7501L4.25024 15.6863L5.52993 14.4057C5.61726 14.3183 5.68167 14.2108 5.71743 14.0926L9.18618 2.63443C9.22136 2.50693 9.30197 2.3967 9.4128 2.32451C9.52363 2.25233 9.65703 2.22317 9.78788 2.24254C9.91872 2.2619 10.038 2.32845 10.1231 2.42965C10.2083 2.53085 10.2535 2.6597 10.2502 2.79193V14.8829ZM14.6977 18.7622L12.4065 16.4738C12.1971 16.2648 12.0313 16.0163 11.9186 15.7427C11.806 15.4691 11.7487 15.1759 11.7502 14.8801V2.7863C11.7503 2.65641 11.797 2.53085 11.8818 2.4325C11.9667 2.33414 12.084 2.26954 12.2125 2.25045C12.341 2.23137 12.4721 2.25907 12.5818 2.32852C12.6916 2.39796 12.7728 2.50453 12.8106 2.6288L16.2793 14.0869C16.3151 14.2051 16.3795 14.3127 16.4668 14.4001L17.8252 15.7585L14.6977 18.7622Z" fill="#9C9C9C"/>
</svg>
