<svg width="19" height="19" viewBox="0 0 19 19" fill="none" xmlns="http://www.w3.org/2000/svg">
<path d="M9.375 0.25C6.88943 0.25273 4.50645 1.24133 2.74889 2.99889C0.991327 4.75645 0.00272962 7.13943 0 9.625V17.5C0 17.8978 0.158035 18.2794 0.43934 18.5607C0.720644 18.842 1.10218 19 1.5 19H9.375C11.8614 19 14.246 18.0123 16.0041 16.2541C17.7623 14.496 18.75 12.1114 18.75 9.625C18.75 7.1386 17.7623 4.75403 16.0041 2.99587C14.246 1.23772 11.8614 0.25 9.375 0.25ZM5.25 11.125C5.0275 11.125 4.80999 11.059 4.62498 10.9354C4.43998 10.8118 4.29578 10.6361 4.21064 10.4305C4.12549 10.225 4.10321 9.99875 4.14662 9.78052C4.19002 9.56229 4.29717 9.36184 4.4545 9.2045C4.61184 9.04717 4.81229 8.94002 5.03052 8.89662C5.24875 8.85321 5.47495 8.87549 5.68052 8.96064C5.88609 9.04578 6.06179 9.18998 6.1854 9.37498C6.30902 9.55999 6.375 9.7775 6.375 10C6.375 10.2984 6.25647 10.5845 6.0455 10.7955C5.83452 11.0065 5.54837 11.125 5.25 11.125ZM9.375 11.125C9.1525 11.125 8.93499 11.059 8.74998 10.9354C8.56498 10.8118 8.42078 10.6361 8.33564 10.4305C8.25049 10.225 8.22821 9.99875 8.27162 9.78052C8.31502 9.56229 8.42217 9.36184 8.5795 9.2045C8.73684 9.04717 8.93729 8.94002 9.15552 8.89662C9.37375 8.85321 9.59995 8.87549 9.80552 8.96064C10.0111 9.04578 10.1868 9.18998 10.3104 9.37498C10.434 9.55999 10.5 9.7775 10.5 10C10.5 10.2984 10.3815 10.5845 10.1705 10.7955C9.95952 11.0065 9.67337 11.125 9.375 11.125ZM13.5 11.125C13.2775 11.125 13.06 11.059 12.875 10.9354C12.69 10.8118 12.5458 10.6361 12.4606 10.4305C12.3755 10.225 12.3532 9.99875 12.3966 9.78052C12.44 9.56229 12.5472 9.36184 12.7045 9.2045C12.8618 9.04717 13.0623 8.94002 13.2805 8.89662C13.4988 8.85321 13.725 8.87549 13.9305 8.96064C14.1361 9.04578 14.3118 9.18998 14.4354 9.37498C14.559 9.55999 14.625 9.7775 14.625 10C14.625 10.2984 14.5065 10.5845 14.2955 10.7955C14.0845 11.0065 13.7984 11.125 13.5 11.125Z" fill="#9C9C9C"/>
</svg>
